<?xml version="1.0" encoding="UTF-8"?>
<svg xmlns="http://www.w3.org/2000/svg" xml:space="preserve" width="262.512mm" height="40.2387mm" version="1.1" style="shape-rendering:geometricPrecision; text-rendering:geometricPrecision; image-rendering:optimizeQuality; fill-rule:evenodd; clip-rule:evenodd" viewBox="0 0 26255.22 4024.49">
 <defs>
  <style type="text/css">
   <![CDATA[
    * { fill: #FFFFFF !important; stroke: #FFFFFF !important; }
   ]]>
  </style>
 </defs>
 <g id="Camada_x0020_1">
  <metadata id="CorelCorpID_0Corel-Layer"/>
  <path class="fil0" d="M1177.82 3998.61l0 -3972.73 1177.82 0 0 3972.73 -1177.82 0z"/>
  <path class="fil1" d="M3533.46 3998.61l0 -2795.11 1177.82 0 0 2795.11 -1177.82 0zm0 -3972.73l0 589.55 1177.82 0 0 -589.55 -1177.82 0z"/>
  <path class="fil2" d="M5889.1 3998.61l0 -3972.73 1177.82 0 0 1767.86 1767.86 -1767.86 1472.28 0 -1767.86 1767.86 1767.86 2204.87 -1472.28 0 -1177.82 -1472.28 -589.55 589.55 0 882.73 -1177.82 0z"/>
  <path class="fil3" d="M12244.56 2795.11c0,-1767.86 1177.82,-2795.11 2944.91,-2795.11 1767.86,0 2944.91,1027.25 2944.91,2795.11 0,1767.86 -1177.05,2795.11 -2944.91,2795.11 -1767.09,0 -2944.91,-1027.25 -2944.91,-2795.11zm4711.99 0c0,-1177.82 -589.55,-1767.86 -1767.09,-1767.86 -1177.05,0 -1767.09,590.32 -1767.09,1767.86 0,1177.82 590.04,1767.86 1767.09,1767.86 1177.54,0 1767.09,-590.04 1767.09,-1767.86z"/>
  <path class="fil4" d="M19599.47 3998.61l0 -2795.11 1177.82 0 0 2795.11 -1177.82 0zm0 -3972.73l0 589.55 1177.82 0 0 -589.55 -1177.82 0z"/>
  <path class="fil5" d="M22544.66 3998.61l0 -3972.73 1177.82 0 0 3383.18 2355.73 0 0 589.55 -3533.55 0z"/>
  <path class="fil6" d="M26255.22 3998.61l0 -3972.73 1177.82 0 0 3972.73 -1177.82 0z"/>
 </g>
</svg>
